<svg width="32" height="32" viewBox="0 0 32 32" fill="none" xmlns="http://www.w3.org/2000/svg">
<path d="M21.587 2.66602H10.4137C5.56033 2.66602 2.66699 5.55935 2.66699 10.4127V21.5727C2.66699 26.4393 5.56033 29.3327 10.4137 29.3327H21.5737C26.427 29.3327 29.3203 26.4393 29.3203 21.586V10.4127C29.3337 5.55935 26.4403 2.66602 21.587 2.66602ZM24.0003 16.9993H17.0003V23.9993C17.0003 24.546 16.547 24.9993 16.0003 24.9993C15.4537 24.9993 15.0003 24.546 15.0003 23.9993V16.9993H8.00033C7.45366 16.9993 7.00033 16.546 7.00033 15.9993C7.00033 15.4527 7.45366 14.9993 8.00033 14.9993H15.0003V7.99935C15.0003 7.45268 15.4537 6.99935 16.0003 6.99935C16.547 6.99935 17.0003 7.45268 17.0003 7.99935V14.9993H24.0003C24.547 14.9993 25.0003 15.4527 25.0003 15.9993C25.0003 16.546 24.547 16.9993 24.0003 16.9993Z" fill="#1A52E4"/>
</svg>
