<svg width="32" height="32" viewBox="0 0 32 32" fill="none" xmlns="http://www.w3.org/2000/svg">
<path d="M15.9998 2.6665C8.63984 2.6665 2.6665 8.63984 2.6665 15.9998C2.6665 23.3598 8.63984 29.3332 15.9998 29.3332C23.3598 29.3332 29.3332 23.3598 29.3332 15.9998C29.3332 8.63984 23.3598 2.6665 15.9998 2.6665ZM20.6665 16.9998H13.7465L16.0398 19.2932C16.4265 19.6798 16.4265 20.3198 16.0398 20.7065C15.8398 20.9065 15.5865 20.9998 15.3332 20.9998C15.0798 20.9998 14.8265 20.9065 14.6265 20.7065L10.6265 16.7065C10.4405 16.5183 10.3362 16.2644 10.3362 15.9998C10.3362 15.7353 10.4405 15.4814 10.6265 15.2932L14.6265 11.2932C15.0132 10.9065 15.6532 10.9065 16.0398 11.2932C16.4265 11.6798 16.4265 12.3198 16.0398 12.7065L13.7465 14.9998H20.6665C21.2132 14.9998 21.6665 15.4532 21.6665 15.9998C21.6665 16.5465 21.2132 16.9998 20.6665 16.9998Z" fill="#0E1011"/>
</svg>
