<svg width="18" height="21" viewBox="0 0 18 21" fill="none" xmlns="http://www.w3.org/2000/svg">
<path d="M13.8201 0H4.18007C2.05007 0 0.320068 1.74 0.320068 3.86V17.95C0.320068 19.75 1.61007 20.51 3.19007 19.64L8.07007 16.93C8.59007 16.64 9.43007 16.64 9.94007 16.93L14.8201 19.64C16.4001 20.52 17.6901 19.76 17.6901 17.95V3.86C17.6801 1.74 15.9501 0 13.8201 0ZM12.0101 7.75C11.0401 8.1 10.0201 8.28 9.00007 8.28C7.98007 8.28 6.96007 8.1 5.99007 7.75C5.80314 7.6823 5.65074 7.54316 5.56636 7.36314C5.48198 7.18313 5.47252 6.97698 5.54007 6.79C5.69007 6.4 6.12007 6.2 6.51007 6.34C8.12007 6.92 9.89007 6.92 11.5001 6.34C11.5934 6.30324 11.6931 6.28556 11.7933 6.28801C11.8936 6.29046 11.9923 6.31298 12.0837 6.35426C12.1751 6.39553 12.2573 6.45471 12.3254 6.5283C12.3935 6.60188 12.4462 6.68838 12.4803 6.78268C12.5144 6.87698 12.5293 6.97716 12.524 7.0773C12.5187 7.17744 12.4934 7.2755 12.4495 7.36568C12.4057 7.45587 12.3442 7.53635 12.2687 7.60236C12.1932 7.66837 12.1053 7.71857 12.0101 7.75Z" fill="#61656D"/>
</svg>
