<svg width="24" height="25" viewBox="0 0 24 25" fill="none" xmlns="http://www.w3.org/2000/svg">
<rect y="0.5" width="24" height="24" rx="12" fill="#FF3333"/>
<path d="M12.376 17.812C10.424 17.812 8.94134 17.3587 7.92801 16.452C6.92534 15.5453 6.42401 14.2387 6.42401 12.532C6.42401 10.7827 6.92001 9.45466 7.91201 8.54799C8.90401 7.64132 10.3813 7.18799 12.344 7.18799C13.0053 7.18799 13.5867 7.23599 14.088 7.33199C14.5893 7.42799 15.0747 7.56666 15.544 7.74799V10.74C15.0533 10.5267 14.568 10.3667 14.088 10.26C13.6187 10.1533 13.1173 10.1 12.584 10.1C11.72 10.1 11.0587 10.2867 10.6 10.66C10.152 11.0227 9.92801 11.6467 9.92801 12.532C9.92801 13.396 10.1627 14.0093 10.632 14.372C11.112 14.724 11.7733 14.9 12.616 14.9C13.1387 14.9 13.64 14.852 14.12 14.756C14.6 14.6493 15.0853 14.4893 15.576 14.276V17.284C15.1067 17.4547 14.616 17.5827 14.104 17.668C13.6027 17.764 13.0267 17.812 12.376 17.812Z" fill="white"/>
</svg>
