<svg width="125" height="188" viewBox="0 0 125 188" fill="none" xmlns="http://www.w3.org/2000/svg">
<g clip-path="url(#clip0_1738_3177)">
<path d="M3.46997 138.33C5.16997 149.771 9.46997 162.086 15.33 174.887C16.2934 177.03 17.8266 178.871 19.7647 180.213C21.7028 181.555 23.9725 182.347 26.33 182.504C53.47 184.242 79.25 185.295 98.21 182.961C100.305 182.694 102.302 181.92 104.026 180.708C105.751 179.496 107.149 177.883 108.1 176.009C113.1 166.306 117.03 152.879 120.64 138.271L3.46997 138.33Z" fill="url(#paint0_linear_1738_3177)"/>
<g style="mix-blend-mode:multiply" opacity="0.3">
<path d="M23.8499 141.419C28.2299 143.137 32.4799 145.143 36.9999 146.563C42.8392 148.349 48.893 149.351 54.9999 149.543C61.2699 149.721 67.7199 149.066 73.6899 150.983C79.6599 152.899 85.1299 158.451 84.2299 164.618C83.5399 169.365 79.2299 172.97 74.6599 174.371C70.0899 175.771 65.0999 175.364 60.2899 175.016L19.4099 171.719C17.5699 171.57 15.6699 171.441 13.7799 171.401C14.2799 172.553 14.7799 173.725 15.3299 174.887C16.2933 177.03 17.8265 178.871 19.7646 180.213C21.7027 181.555 23.9725 182.347 26.3299 182.504C53.4699 184.242 79.2499 185.295 98.2099 182.961C100.305 182.694 102.302 181.92 104.026 180.708C105.751 179.496 107.149 177.883 108.1 176.009C113.1 166.306 117.03 152.879 120.64 138.271H17.8999C19.5299 139.84 21.8099 140.604 23.8499 141.419Z" fill="#E58E0E"/>
</g>
<path d="M71.62 187.996C57.26 187.996 41.55 187.162 26.11 186.179C23.0807 185.972 20.1656 184.948 17.6791 183.217C15.1925 181.487 13.229 179.114 12 176.357C5.38001 161.917 0.61001 147.983 0.51001 136.384L9.08001 138.37C10.58 148.46 12.43 159.563 18.71 173.417C19.3987 174.953 20.4968 176.272 21.8856 177.233C23.2743 178.194 24.901 178.76 26.59 178.87C52.25 180.508 78.59 181.71 97.77 179.346C99.2556 179.147 100.67 178.59 101.89 177.725C103.11 176.86 104.098 175.712 104.77 174.381C110.07 164.092 111.71 150.546 114.63 138.787L123.31 136.175C121.73 149.91 117.02 166.763 111.38 177.727C110.153 180.138 108.351 182.213 106.13 183.771C103.909 185.329 101.337 186.323 98.64 186.666C89.6686 187.649 80.6454 188.094 71.62 187.996Z" fill="url(#paint1_linear_1738_3177)"/>
<path d="M3.46997 138.33C4.07507 123.647 6.86184 109.133 11.74 95.2584C12.5349 92.9485 13.9826 90.9148 15.9102 89.4003C17.8378 87.8857 20.1637 86.9544 22.61 86.7175C44.61 84.6617 71 84.3539 99.38 84.8504C102.049 84.8979 104.635 85.7766 106.774 87.3626C108.913 88.9485 110.496 91.1615 111.3 93.6892C116.61 110.493 120.49 126.035 120.66 138.38C84.12 145.818 44.77 144.954 3.46997 138.33Z" fill="url(#paint2_linear_1738_3177)"/>
<g style="mix-blend-mode:multiply" opacity="0.3">
<path d="M120.66 138.33C120.49 126.035 116.66 110.523 111.3 93.6892C110.496 91.1615 108.913 88.9485 106.774 87.3626C104.635 85.7766 102.049 84.8979 99.38 84.8504L92.82 84.7511C92.8777 90.5372 92.1066 96.3021 90.53 101.873C86.869 114.55 79.2063 125.725 68.67 133.752C66.78 135.182 64.67 136.652 63.88 138.876C63.3732 140.419 63.4478 142.092 64.09 143.584C83.0791 143.787 102.038 142.027 120.66 138.33Z" fill="#E58E0E"/>
</g>
<path d="M65.65 147.338C45.8252 147.232 26.0376 145.622 6.45996 142.521C4.52778 142.233 2.78069 141.219 1.57879 139.689C0.37689 138.159 -0.188211 136.23 -3.65935e-05 134.298C1.71996 116.918 9.65996 94.8314 12.33 87.1943C12.3925 87.0189 12.4943 86.8598 12.6277 86.7291C12.7611 86.5984 12.9225 86.4993 13.1 86.4395C16.123 85.5293 19.2915 85.1924 22.44 85.4464C22.6207 85.4573 22.7966 85.5084 22.9549 85.5958C23.1131 85.6832 23.2495 85.8048 23.3541 85.9516C23.4587 86.0984 23.5288 86.2666 23.5593 86.4438C23.5897 86.6211 23.5797 86.8029 23.53 86.9758C18.42 101.158 8.67996 121.934 7.41996 135.003C7.41094 135.056 7.42249 135.11 7.45224 135.154C7.48199 135.198 7.52769 135.23 7.57996 135.242C47.92 141.409 83.11 141.538 115.18 135.639C115.608 135.572 115.994 135.346 116.26 135.007C116.526 134.667 116.651 134.24 116.61 133.812C115.31 123.404 102.13 92.8451 99 85.7344C98.9228 85.5605 98.8886 85.3708 98.9002 85.1812C98.9119 84.9915 98.969 84.8074 99.0669 84.6441C99.1647 84.4809 99.3005 84.3432 99.4628 84.2426C99.6251 84.142 99.8093 84.0815 100 84.0659C102.689 83.9372 105.385 84.0236 108.06 84.3241C108.282 84.3509 108.492 84.4371 108.668 84.5736C108.844 84.7101 108.98 84.8916 109.06 85.0988C111 90.1637 122.54 121.457 124 132.908C124.258 135.191 123.633 137.487 122.252 139.33C120.871 141.174 118.836 142.428 116.56 142.839C99.7649 145.887 82.723 147.393 65.65 147.338Z" fill="url(#paint3_linear_1738_3177)"/>
<path d="M80.37 138.072C80.37 148.361 72.86 155.769 62.51 155.769C57.5372 155.769 52.7681 153.808 49.2518 150.315C45.7355 146.823 43.76 142.087 43.76 137.148C43.76 126.87 53.61 120.881 63.96 120.881C74.31 120.881 80.37 127.793 80.37 138.072Z" fill="url(#paint4_linear_1738_3177)"/>
<path d="M67.7299 136.016C67.7299 132.878 65.7299 130.633 62.5699 130.633C59.4099 130.633 56.2999 132.62 56.2999 135.718C56.301 136.852 56.6433 137.961 57.283 138.9C57.9227 139.84 58.8305 140.568 59.8899 140.992C59.4399 143.673 58.9699 146.891 58.9699 147.159C58.9699 147.914 65.5199 148.202 65.6699 147.477C65.4054 145.27 64.9776 143.086 64.3899 140.942C65.3828 140.553 66.2335 139.873 66.8298 138.994C67.426 138.115 67.7399 137.076 67.7299 136.016Z" fill="url(#paint5_linear_1738_3177)"/>
<g style="mix-blend-mode:soft-light">
<path d="M35.8999 89.7068C32.4716 90.1799 29.2386 91.5741 26.5499 93.7389C22.9299 96.9069 21.1599 101.585 19.9999 106.203C19.6179 107.388 19.4851 108.639 19.6099 109.877C19.6833 110.496 19.9303 111.082 20.3228 111.569C20.7154 112.055 21.2375 112.422 21.8299 112.628C22.9318 112.805 24.0606 112.572 24.9999 111.973C32.3399 108.209 36.9999 100.641 43.9199 96.182C44.7853 95.6858 45.6021 95.1107 46.3599 94.4639C47.117 93.8012 47.5834 92.8711 47.6599 91.8718C47.6599 89.5181 45.5999 89.2301 43.8299 89.2202C41.1774 89.1554 38.5242 89.3182 35.8999 89.7068Z" fill="white"/>
</g>
<g style="mix-blend-mode:soft-light">
<path d="M17.47 124.009C17.4986 124.446 17.6178 124.872 17.82 125.261C17.9188 125.449 18.0608 125.612 18.2344 125.736C18.4081 125.86 18.6086 125.942 18.82 125.976C19.57 125.976 20.11 125.29 20.5 124.655L22 122.222C22.5934 121.352 23.033 120.388 23.3 119.371C23.67 117.475 22.38 115.548 20.3 115.915C18.63 116.213 18.04 118.468 17.72 119.888C17.3919 121.236 17.3072 122.632 17.47 124.009Z" fill="white"/>
</g>
</g>
<g clip-path="url(#clip1_1738_3177)">
<path d="M95.9563 69.8974C91.158 64.2382 86.9152 58.6983 84.4302 53.5675C84.2763 53.2441 84.2058 52.8863 84.2255 52.5282C84.2452 52.17 84.3544 51.8232 84.5428 51.5207C86.1034 48.9848 88.453 46.6244 91.1463 44.3372C91.5328 44.0088 92.0239 43.8352 92.5281 43.8486C98.241 43.9964 103.935 44.6087 109.556 45.6795C109.864 45.7419 110.155 45.8754 110.406 46.0698C110.656 46.2642 110.86 46.5143 111.001 46.8009C112.486 49.8524 113.585 53.0825 114.27 56.4134C114.347 56.7672 114.334 57.135 114.23 57.4809C114.126 57.8269 113.936 58.1394 113.679 58.388C109.009 62.7773 103.98 66.7529 98.6461 70.2721C98.2304 70.5514 97.7288 70.6674 97.2342 70.5985C96.7396 70.5296 96.2855 70.2805 95.9563 69.8974Z" fill="url(#paint6_linear_1738_3177)"/>
<path d="M109.565 45.6909C103.944 44.62 98.2504 44.0078 92.5375 43.86C92.161 43.8499 91.7893 43.9442 91.4622 44.1329C91.8471 47.1569 92.6044 50.121 93.7163 52.9551C93.7884 53.1283 93.8987 53.2824 94.0387 53.4052C94.1787 53.5281 94.3445 53.6165 94.5233 53.6634C97.6411 54.5166 101.473 54.7629 105.568 54.8043C105.751 54.8056 105.933 54.7637 106.098 54.6816C106.263 54.5996 106.406 54.4798 106.518 54.3316C107.961 52.4434 109.387 49.647 110.811 46.4878C110.505 46.0758 110.062 45.7922 109.565 45.6909Z" fill="url(#paint7_linear_1738_3177)"/>
<path d="M93.3044 53.3097C90.3094 52.7606 87.2767 52.4588 84.2359 52.4071C84.1873 52.8038 84.2532 53.2068 84.4254 53.567C86.9155 58.6983 91.1583 64.2382 95.9566 69.8974C96.1883 70.1739 96.4864 70.3844 96.8217 70.5084C96.8057 65.0124 95.9842 59.5463 94.3844 54.2908C94.3089 54.0429 94.1683 53.8205 93.978 53.6475C93.7876 53.4746 93.5547 53.3578 93.3044 53.3097Z" fill="url(#paint8_linear_1738_3177)"/>
<path d="M106.972 55.0356C106.77 55.0011 106.563 55.0256 106.375 55.1062C106.187 55.1869 106.025 55.3203 105.909 55.4911C102.36 60.693 99.2089 65.7306 96.781 70.4833C97.0884 70.6061 97.42 70.6522 97.748 70.6176C98.0759 70.583 98.3906 70.4688 98.6656 70.2845C104 66.7654 109.029 62.7897 113.698 58.4004C114.037 58.0758 114.254 57.6419 114.314 57.1718C111.951 56.1852 109.488 55.4687 106.972 55.0356Z" fill="url(#paint9_linear_1738_3177)"/>
<g style="mix-blend-mode:multiply" opacity="0.2">
<path d="M111.01 46.8123C110.851 46.4948 110.616 46.2235 110.326 46.0239C110.55 47.903 110.496 49.8048 110.165 51.6652C109.73 54.022 108.822 56.2599 107.497 58.2386C105.882 60.5775 103.735 62.4827 101.238 63.7922C98.7416 65.1018 95.9691 65.7771 93.1561 65.7609L92.5192 65.7442C93.6183 67.121 94.7672 68.5083 95.9508 69.9046C96.279 70.2919 96.734 70.5447 97.2308 70.6158C97.7275 70.6868 98.2319 70.5712 98.6496 70.2906C103.984 66.7715 109.013 62.7958 113.682 58.4065C113.94 58.1579 114.13 57.8455 114.233 57.4995C114.337 57.1535 114.351 56.7857 114.274 56.4319C113.591 53.0989 112.494 49.8663 111.01 46.8123Z" fill="#114940"/>
</g>
<g style="mix-blend-mode:soft-light">
<path d="M92.6826 45.1342C92.2084 45.129 91.7412 45.2473 91.3254 45.4778C90.9303 45.7409 90.6755 46.2807 90.8754 46.7243C91.0363 47.0757 91.4184 47.2488 91.7739 47.3829C93.0996 47.9007 94.497 48.2004 95.9135 48.2708C97.334 48.3411 98.7457 48.0254 100.004 47.3562C100.316 47.2049 100.585 46.9766 100.788 46.692C100.99 46.3694 101.076 45.7181 100.612 45.5984C99.9882 45.479 99.3572 45.4043 98.7236 45.3746C97.4399 45.2366 96.1537 45.1242 94.8643 45.0943C94.1408 45.0787 93.4097 45.0881 92.6826 45.1342Z" fill="white"/>
</g>
<g style="mix-blend-mode:soft-light">
<path d="M102.235 46.1821C102.138 46.1912 102.044 46.2221 101.959 46.2726C101.875 46.3231 101.803 46.3919 101.748 46.4742C101.721 46.5395 101.708 46.6104 101.711 46.6815C101.714 46.7527 101.733 46.8223 101.766 46.8852C101.837 47.012 101.936 47.1209 102.054 47.2037C102.508 47.5693 103.08 47.7482 103.656 47.7048C103.891 47.6923 104.118 47.6177 104.316 47.4883C104.415 47.4213 104.498 47.3313 104.556 47.2256C104.615 47.1198 104.649 47.0014 104.654 46.8798C104.662 46.3886 104.14 46.2393 103.764 46.1626C103.258 46.0624 102.738 46.0691 102.235 46.1821Z" fill="white"/>
</g>
</g>
<g clip-path="url(#clip2_1738_3177)">
<path d="M36.7741 54.0371C24.9997 47.8192 14.2414 41.4154 6.71918 34.4766C6.24965 34.0373 5.89898 33.4818 5.70041 32.8626C5.50183 32.2434 5.46191 31.5811 5.58445 30.9384C6.58066 25.5629 9.02407 19.9335 12.096 14.188C12.5368 13.3633 13.2545 12.7272 14.1154 12.3981C23.8678 8.66162 33.889 5.72341 44.0833 3.61149C44.6453 3.50164 45.2231 3.52449 45.7723 3.67827C46.3216 3.83206 46.8278 4.1127 47.252 4.49864C51.7383 8.62025 55.6865 13.3137 59.0012 18.4658C59.3607 19.01 59.5753 19.6413 59.6242 20.2985C59.6731 20.9556 59.5545 21.6162 59.28 22.2161C54.2285 32.8937 48.3017 43.123 41.5634 52.7935C41.0417 53.5558 40.2688 54.1019 39.3881 54.3305C38.5075 54.5592 37.5787 54.4549 36.7741 54.0371Z" fill="url(#paint10_linear_1738_3177)"/>
<path d="M44.1065 3.6246C33.9122 5.73651 23.891 8.67472 14.1386 12.4112C13.4957 12.6568 12.9284 13.0756 12.4976 13.6227C15.1059 18.4657 18.3051 22.9476 22.0193 26.9624C22.2533 27.2049 22.5395 27.3883 22.8557 27.4983C23.1719 27.6083 23.5095 27.642 23.8421 27.5966C29.6646 26.8633 36.3017 24.6056 43.2493 21.8188C43.5607 21.6928 43.8402 21.4952 44.0657 21.2415C44.2913 20.9879 44.4569 20.685 44.5495 20.3566C45.7655 16.1583 46.3661 10.4362 46.7285 4.10233C45.9449 3.61932 45.0116 3.44928 44.1065 3.6246Z" fill="url(#paint11_linear_1738_3177)"/>
<path d="M21.5526 27.8491C16.1346 29.0108 10.8129 30.6168 5.63952 32.6512C5.81424 33.3557 6.18648 33.9909 6.71087 34.4795C14.2419 41.4156 25.0003 47.8194 36.7747 54.0373C37.3453 54.3429 37.9856 54.4908 38.6325 54.4664C35.0474 45.1874 30.1201 36.5211 24.0134 28.7539C23.7252 28.3876 23.3437 28.1097 22.91 27.9502C22.4763 27.7907 22.0069 27.7558 21.5526 27.8491Z" fill="url(#paint12_linear_1738_3177)"/>
<path d="M45.7724 21.2299C45.409 21.3124 45.075 21.4983 44.8091 21.7658C44.5432 22.0334 44.3564 22.3718 44.2703 22.7415C41.6393 34.0109 39.5745 44.7246 38.5474 54.4524C39.1466 54.4456 39.737 54.292 40.2689 54.0048C40.8008 53.7175 41.2588 53.3048 41.6043 52.8014C48.3426 43.1309 54.2695 32.9016 59.3209 22.224C59.6827 21.4393 59.7696 20.5539 59.5669 19.7173C54.9333 19.6987 50.3067 20.206 45.7724 21.2299Z" fill="url(#paint13_linear_1738_3177)"/>
<g style="mix-blend-mode:multiply" opacity="0.2">
<path d="M47.2751 4.51175C46.8008 4.08605 46.2269 3.79181 45.6075 3.65678C47.2039 6.67638 48.3435 9.92882 48.9879 13.3048C49.7794 17.5916 49.6928 22.0083 48.7335 26.2777C47.5179 31.3581 45.1222 36.0765 41.7499 40.0322C38.3776 43.9878 34.1283 47.0639 29.3629 48.9992L28.2756 49.4154C31.0247 50.9758 33.8648 52.5192 36.7695 54.0534C37.575 54.4791 38.5078 54.5889 39.3935 54.3624C40.2791 54.1359 41.0569 53.5886 41.5814 52.8228C48.3196 43.1522 54.2465 32.923 59.298 22.2453C59.5724 21.6454 59.691 20.9848 59.6421 20.3277C59.5933 19.6706 59.3787 19.0393 59.0191 18.4951C55.7071 13.3376 51.7607 8.63866 47.2751 4.51175Z" fill="#114940"/>
</g>
<g style="mix-blend-mode:soft-light">
<path d="M15.2088 14.4638C14.4039 14.7859 13.6908 15.3117 13.1372 15.9915C12.6396 16.712 12.5583 17.8021 13.1835 18.4125C13.6829 18.8942 14.4409 18.9203 15.1286 18.8988C17.7047 18.8491 20.2608 18.3807 22.7008 17.5112C25.1473 16.6388 27.3293 15.1202 29.0229 13.111C29.4519 12.6378 29.7594 12.064 29.9176 11.4415C30.0513 10.7547 29.7739 9.59444 28.9124 9.71557C27.7809 9.94908 26.6659 10.263 25.5758 10.6549C23.3165 11.3173 21.0696 12.0248 18.8707 12.874C17.6377 13.3524 16.408 13.8785 15.2088 14.4638Z" fill="white"/>
</g>
<g style="mix-blend-mode:soft-light">
<path d="M32.0343 9.56953C31.8755 9.65293 31.7364 9.77087 31.6267 9.91495C31.5171 10.059 31.4397 10.2257 31.4001 10.4031C31.3961 10.5327 31.4206 10.6613 31.4718 10.7794C31.5229 10.8976 31.5995 11.0022 31.6958 11.0857C31.899 11.25 32.1363 11.3651 32.3901 11.4226C33.3939 11.7239 34.4758 11.6274 35.4209 11.1524C35.81 10.9672 36.1463 10.6824 36.3966 10.3258C36.5215 10.1432 36.6026 9.93344 36.6334 9.71372C36.6642 9.494 36.6439 9.27049 36.574 9.06137C36.2701 8.22536 35.2912 8.33707 34.6051 8.47006C33.6853 8.65371 32.8103 9.02794 32.0343 9.56953Z" fill="white"/>
</g>
</g>
<defs>
<linearGradient id="paint0_linear_1738_3177" x1="56.86" y1="-8.35433" x2="68.9226" y2="336.107" gradientUnits="userSpaceOnUse">
<stop stop-color="#FFD188"/>
<stop offset="0.5" stop-color="#E58E0E"/>
<stop offset="1" stop-color="#5C3600"/>
</linearGradient>
<linearGradient id="paint1_linear_1738_3177" x1="60.59" y1="66.8053" x2="63.2826" y2="208.674" gradientUnits="userSpaceOnUse">
<stop stop-color="#FFD188"/>
<stop offset="0.5" stop-color="#E58E0E"/>
<stop offset="1" stop-color="#5C3600"/>
</linearGradient>
<linearGradient id="paint2_linear_1738_3177" x1="53.9" y1="-91.8959" x2="68.6355" y2="328.709" gradientUnits="userSpaceOnUse">
<stop stop-color="#FFD188"/>
<stop offset="0.5" stop-color="#E58E0E"/>
<stop offset="1" stop-color="#5C3600"/>
</linearGradient>
<linearGradient id="paint3_linear_1738_3177" x1="56.97" y1="106.391" x2="108.042" y2="393.586" gradientUnits="userSpaceOnUse">
<stop stop-color="#FFD188"/>
<stop offset="0.5" stop-color="#E58E0E"/>
<stop offset="1" stop-color="#5C3600"/>
</linearGradient>
<linearGradient id="paint4_linear_1738_3177" x1="61.47" y1="134.08" x2="85.5459" y2="269.46" gradientUnits="userSpaceOnUse">
<stop stop-color="#FFD188"/>
<stop offset="0.5" stop-color="#E58E0E"/>
<stop offset="1" stop-color="#5C3600"/>
</linearGradient>
<linearGradient id="paint5_linear_1738_3177" x1="53.5699" y1="88.9619" x2="65.6177" y2="156.722" gradientUnits="userSpaceOnUse">
<stop stop-color="#FFD188"/>
<stop offset="0.5" stop-color="#E58E0E"/>
<stop offset="1" stop-color="#5C3600"/>
</linearGradient>
<linearGradient id="paint6_linear_1738_3177" x1="99.7535" y1="41.984" x2="96.0898" y2="127.132" gradientUnits="userSpaceOnUse">
<stop stop-color="#AEF4E9"/>
<stop offset="0.5" stop-color="#27BA9E"/>
<stop offset="1" stop-color="#114939"/>
</linearGradient>
<linearGradient id="paint7_linear_1738_3177" x1="100.799" y1="48.7002" x2="95.1749" y2="101.002" gradientUnits="userSpaceOnUse">
<stop stop-color="#AEF4E9"/>
<stop offset="0.5" stop-color="#27BA9E"/>
<stop offset="1" stop-color="#114939"/>
</linearGradient>
<linearGradient id="paint8_linear_1738_3177" x1="90.6759" y1="59.9961" x2="81.3759" y2="146.489" gradientUnits="userSpaceOnUse">
<stop stop-color="#AEF4E9"/>
<stop offset="0.5" stop-color="#27BA9E"/>
<stop offset="1" stop-color="#114939"/>
</linearGradient>
<linearGradient id="paint9_linear_1738_3177" x1="100.787" y1="35.6621" x2="111.672" y2="99.3075" gradientUnits="userSpaceOnUse">
<stop stop-color="#AEF4E9"/>
<stop offset="0.5" stop-color="#27BA9E"/>
<stop offset="1" stop-color="#114939"/>
</linearGradient>
<linearGradient id="paint10_linear_1738_3177" x1="25.1215" y1="4.20456" x2="77.8997" y2="149.29" gradientUnits="userSpaceOnUse">
<stop stop-color="#AEF4E9"/>
<stop offset="0.5" stop-color="#27BA9E"/>
<stop offset="1" stop-color="#114939"/>
</linearGradient>
<linearGradient id="paint11_linear_1738_3177" x1="31.236" y1="14.8286" x2="58.0925" y2="106.426" gradientUnits="userSpaceOnUse">
<stop stop-color="#AEF4E9"/>
<stop offset="0.5" stop-color="#27BA9E"/>
<stop offset="1" stop-color="#114939"/>
</linearGradient>
<linearGradient id="paint12_linear_1738_3177" x1="21.4384" y1="40.9855" x2="65.8516" y2="192.463" gradientUnits="userSpaceOnUse">
<stop stop-color="#AEF4E9"/>
<stop offset="0.5" stop-color="#27BA9E"/>
<stop offset="1" stop-color="#114939"/>
</linearGradient>
<linearGradient id="paint13_linear_1738_3177" x1="22.7748" y1="-7.20192" x2="84.4382" y2="91.498" gradientUnits="userSpaceOnUse">
<stop stop-color="#AEF4E9"/>
<stop offset="0.5" stop-color="#27BA9E"/>
<stop offset="1" stop-color="#114939"/>
</linearGradient>
<clipPath id="clip0_1738_3177">
<rect width="124.04" height="104" fill="white" transform="translate(0 83.9963)"/>
</clipPath>
<clipPath id="clip1_1738_3177">
<rect width="30.3988" height="26.4478" fill="white" transform="matrix(0.994269 0.106906 -0.0992691 0.995061 85.2026 42.7166)"/>
</clipPath>
<clipPath id="clip2_1738_3177">
<rect width="55.4328" height="48" fill="white" transform="matrix(0.959603 -0.281356 0.262498 0.964933 1 15.5964)"/>
</clipPath>
</defs>
</svg>
