<svg width="24" height="25" viewBox="0 0 24 25" fill="none" xmlns="http://www.w3.org/2000/svg">
<path d="M17.242 23.25H6.76203C3.96203 23.25 2.18203 21.58 2.02203 18.79L1.50203 10.54C1.46012 9.92669 1.54603 9.31136 1.75432 8.73298C1.9626 8.1546 2.28872 7.62578 2.71203 7.18C3.56203 6.27 4.76203 5.75 6.00203 5.75C6.32203 5.75 6.63203 5.56 6.78203 5.26L7.50203 3.83C8.09203 2.66 9.57203 1.75 10.862 1.75H13.152C14.442 1.75 15.912 2.66 16.502 3.82L17.222 5.28C17.372 5.56 17.672 5.75 18.002 5.75C19.242 5.75 20.442 6.27 21.292 7.18C22.152 8.1 22.582 9.29 22.502 10.54L21.982 18.8C21.802 21.63 20.072 23.25 17.242 23.25ZM10.862 3.25C10.122 3.25 9.18203 3.83 8.84203 4.5L8.12203 5.94C7.70203 6.75 6.89203 7.25 6.00203 7.25C5.16203 7.25 4.38203 7.59 3.80203 8.2C3.23203 8.81 2.94203 9.61 3.00203 10.44L3.52203 18.7C3.64203 20.72 4.73203 21.75 6.76203 21.75H17.242C19.262 21.75 20.352 20.72 20.482 18.7L21.002 10.44C21.029 10.0318 20.972 9.62232 20.8344 9.23703C20.6967 8.85173 20.4815 8.49877 20.202 8.2C19.622 7.59 18.842 7.25 18.002 7.25C17.112 7.25 16.302 6.75 15.882 5.96L15.152 4.5C14.822 3.84 13.882 3.26 13.142 3.26H10.862V3.25Z" fill="#61656D"/>
<path d="M13.5 9.25H10.5C10.09 9.25 9.75 8.91 9.75 8.5C9.75 8.09 10.09 7.75 10.5 7.75H13.5C13.91 7.75 14.25 8.09 14.25 8.5C14.25 8.91 13.91 9.25 13.5 9.25ZM12 19.25C9.79 19.25 8 17.46 8 15.25C8 13.04 9.79 11.25 12 11.25C14.21 11.25 16 13.04 16 15.25C16 17.46 14.21 19.25 12 19.25ZM12 12.75C11.337 12.75 10.7011 13.0134 10.2322 13.4822C9.76339 13.9511 9.5 14.587 9.5 15.25C9.5 15.913 9.76339 16.5489 10.2322 17.0178C10.7011 17.4866 11.337 17.75 12 17.75C12.663 17.75 13.2989 17.4866 13.7678 17.0178C14.2366 16.5489 14.5 15.913 14.5 15.25C14.5 14.587 14.2366 13.9511 13.7678 13.4822C13.2989 13.0134 12.663 12.75 12 12.75Z" fill="#61656D"/>
</svg>
