<svg width="24" height="24" viewBox="0 0 24 24" fill="none" xmlns="http://www.w3.org/2000/svg">
<path d="M16.831 15.6402C16.9821 15.5406 17.1574 15.484 17.3381 15.4762C17.5189 15.4685 17.6984 15.5099 17.8574 15.5961C18.0165 15.6823 18.1492 15.8101 18.2414 15.9658C18.3336 16.1214 18.3818 16.2992 18.381 16.4802V17.7702C18.381 19.0402 17.391 20.4002 16.201 20.8002L13.011 21.8602C12.451 22.0502 11.541 22.0502 10.991 21.8602L7.80097 20.8002C6.60097 20.4002 5.62097 19.0402 5.62097 17.7702V16.4702C5.62097 15.6802 6.50097 15.2002 7.16097 15.6302L9.22097 16.9702C10.011 17.5002 11.011 17.7602 12.011 17.7602C13.011 17.7602 14.011 17.5002 14.801 16.9702L16.831 15.6402Z" fill="#61656D"/>
<path d="M19.98 6.45908L13.99 2.52908C12.91 1.81908 11.13 1.81908 10.05 2.52908L4.03002 6.45908C2.10002 7.70908 2.10002 10.5391 4.03002 11.7991L5.63002 12.8391L10.05 15.7191C11.13 16.4291 12.91 16.4291 13.99 15.7191L18.38 12.8391L19.75 11.9391V14.9991C19.75 15.4091 20.09 15.7491 20.5 15.7491C20.91 15.7491 21.25 15.4091 21.25 14.9991V10.0791C21.65 8.78908 21.24 7.28908 19.98 6.45908Z" fill="#61656D"/>
</svg>
