<svg width="24" height="24" viewBox="0 0 24 24" fill="none" xmlns="http://www.w3.org/2000/svg">
<path d="M2.57999 19.0111L2.55999 19.0311C2.28999 18.4411 2.11999 17.7711 2.04999 17.0311C2.11999 17.7611 2.30999 18.4211 2.57999 19.0111ZM9.00099 10.3811C9.6322 10.3811 10.2376 10.1303 10.6839 9.68401C11.1302 9.23767 11.381 8.63231 11.381 8.00109C11.381 7.36988 11.1302 6.76452 10.6839 6.31818C10.2376 5.87184 9.6322 5.62109 9.00099 5.62109C8.36977 5.62109 7.76441 5.87184 7.31807 6.31818C6.87174 6.76452 6.62099 7.36988 6.62099 8.00109C6.62099 8.63231 6.87174 9.23767 7.31807 9.68401C7.76441 10.1303 8.36977 10.3811 9.00099 10.3811Z" fill="#61656D"/>
<path d="M16.19 2H7.81C4.17 2 2 4.17 2 7.81V16.19C2 17.28 2.19 18.23 2.56 19.03C3.42 20.93 5.26 22 7.81 22H16.19C19.83 22 22 19.83 22 16.19V7.81C22 4.17 19.83 2 16.19 2ZM20.37 12.5C19.59 11.83 18.33 11.83 17.55 12.5L13.39 16.07C12.61 16.74 11.35 16.74 10.57 16.07L10.23 15.79C9.52 15.17 8.39 15.11 7.59 15.65L3.85 18.16C3.63 17.6 3.5 16.95 3.5 16.19V7.81C3.5 4.99 4.99 3.5 7.81 3.5H16.19C19.01 3.5 20.5 4.99 20.5 7.81V12.61L20.37 12.5Z" fill="#61656D"/>
</svg>
