<svg width="24" height="25" viewBox="0 0 24 25" fill="none" xmlns="http://www.w3.org/2000/svg">
<path d="M20 12.5V18.5C20 20.71 18.21 22.5 16 22.5H8C5.79 22.5 4 20.71 4 18.5V12.5C4 11.95 4.45 11.5 5 11.5H6.97C7.52 11.5 7.97 11.95 7.97 12.5V15.64C7.97104 16.171 8.18177 16.6802 8.55634 17.0566C8.9309 17.433 9.43898 17.6463 9.97 17.65C10.35 17.65 10.73 17.54 11.06 17.32L12.01 16.7L12.89 17.29C13.5 17.7 14.28 17.75 14.93 17.4C15.59 17.05 16 16.38 16 15.63V12.5C16 11.95 16.45 11.5 17 11.5H19C19.55 11.5 20 11.95 20 12.5ZM21.5 7.5V8.5C21.5 9.6 20.97 10.5 19.5 10.5H4.5C2.97 10.5 2.5 9.6 2.5 8.5V7.5C2.5 6.4 2.97 5.5 4.5 5.5H19.5C20.97 5.5 21.5 6.4 21.5 7.5Z" fill="#0E1011"/>
<path d="M11.639 5.50079H6.11901C5.95458 5.32245 5.86581 5.08724 5.8714 4.84473C5.877 4.60223 5.97653 4.37136 6.14901 4.20079L7.56901 2.78079C7.74872 2.60309 7.99127 2.50342 8.24401 2.50342C8.49675 2.50342 8.73929 2.60309 8.91901 2.78079L11.639 5.50079ZM17.872 5.50079H12.352L15.072 2.78079C15.2517 2.60309 15.4943 2.50342 15.747 2.50342C15.9997 2.50342 16.2423 2.60309 16.422 2.78079L17.842 4.20079C18.202 4.56079 18.212 5.13079 17.872 5.50079ZM13.971 11.4998C14.521 11.4998 14.971 11.9498 14.971 12.4998V15.6298C14.971 16.4298 14.081 16.9098 13.421 16.4598L12.521 15.8598C12.3577 15.7523 12.1665 15.695 11.971 15.695C11.7755 15.695 11.5843 15.7523 11.421 15.8598L10.481 16.4798C9.82101 16.9198 8.94101 16.4398 8.94101 15.6498V12.4998C8.94101 11.9498 9.39101 11.4998 9.94101 11.4998H13.971Z" fill="#0E1011"/>
</svg>
