<svg width="24" height="25" viewBox="0 0 24 25" fill="none" xmlns="http://www.w3.org/2000/svg">
<path d="M15.969 23.25H7.96899C4.54899 23.25 3.21899 21.92 3.21899 18.5V10.5C3.21899 10.09 3.55899 9.75 3.96899 9.75H19.969C20.379 9.75 20.719 10.09 20.719 10.5V18.5C20.719 21.92 19.389 23.25 15.969 23.25ZM4.71899 11.25V18.5C4.71899 21.08 5.38899 21.75 7.96899 21.75H15.969C18.549 21.75 19.219 21.08 19.219 18.5V11.25H4.71899Z" fill="#27BA8E"/>
<path d="M19.5 11.25H4.5C2.75 11.25 1.75 10.25 1.75 8.5V7.5C1.75 5.75 2.75 4.75 4.5 4.75H19.5C21.2 4.75 22.25 5.8 22.25 7.5V8.5C22.25 10.2 21.2 11.25 19.5 11.25ZM4.5 6.25C3.59 6.25 3.25 6.59 3.25 7.5V8.5C3.25 9.41 3.59 9.75 4.5 9.75H19.5C20.38 9.75 20.75 9.38 20.75 8.5V7.5C20.75 6.62 20.38 6.25 19.5 6.25H4.5Z" fill="#27BA8E"/>
<path d="M11.6401 6.24891H6.12009C5.91009 6.24891 5.71009 6.15891 5.57009 6.00891C4.96009 5.33891 4.98009 4.30891 5.62009 3.66891L7.04009 2.24891C7.70009 1.58891 8.79009 1.58891 9.45009 2.24891L12.1701 4.96891C12.3801 5.17891 12.4501 5.50891 12.3301 5.78891C12.2201 6.06891 11.9501 6.24891 11.6401 6.24891ZM6.67009 4.74891H9.84009L8.39009 3.30891C8.37106 3.28986 8.34845 3.27475 8.32357 3.26444C8.29869 3.25413 8.27203 3.24882 8.24509 3.24882C8.21816 3.24882 8.1915 3.25413 8.16662 3.26444C8.14174 3.27475 8.11913 3.28986 8.10009 3.30891L6.68009 4.72891C6.68009 4.73891 6.67009 4.73891 6.67009 4.74891Z" fill="#27BA8E"/>
<path d="M17.8699 6.24891H12.3499C12.2021 6.24991 12.0574 6.20663 11.9344 6.12464C11.8114 6.04265 11.7158 5.92572 11.6599 5.78891C11.5399 5.50891 11.6099 5.18891 11.8199 4.96891L14.5399 2.24891C15.1999 1.58891 16.2899 1.58891 16.9499 2.24891L18.3699 3.66891C19.0099 4.30891 19.0399 5.33891 18.4199 6.00891C18.2799 6.15891 18.0799 6.24891 17.8699 6.24891ZM14.1699 4.74891H17.3399L17.3199 4.72891L15.8999 3.30891C15.8809 3.28986 15.8583 3.27475 15.8334 3.26444C15.8085 3.25413 15.7818 3.24882 15.7549 3.24882C15.728 3.24882 15.7013 3.25413 15.6764 3.26444C15.6516 3.27475 15.629 3.28986 15.6099 3.30891L14.1699 4.74891ZM9.94092 17.3999C9.47695 17.3994 9.03214 17.2148 8.70407 16.8868C8.37599 16.5587 8.19145 16.1139 8.19092 15.6499V10.4999C8.19092 10.0899 8.53092 9.74991 8.94092 9.74991H14.9809C15.3909 9.74991 15.7309 10.0899 15.7309 10.4999V15.6299C15.7309 16.2799 15.3809 16.8699 14.8109 17.1699C14.2409 17.4799 13.5509 17.4399 13.0109 17.0799L12.1209 16.4799C12.0801 16.4506 12.0312 16.4348 11.9809 16.4348C11.9307 16.4348 11.8817 16.4506 11.8409 16.4799L10.9009 17.0999C10.6109 17.2999 10.2709 17.3999 9.94092 17.3999ZM9.69092 11.2499V15.6399C9.69092 15.7699 9.77092 15.8299 9.82092 15.8599C9.87092 15.8899 9.97092 15.9199 10.0809 15.8499L11.0209 15.2299C11.6109 14.8399 12.3709 14.8399 12.9509 15.2299L13.8409 15.8299C13.9509 15.8999 14.0509 15.8699 14.1009 15.8399C14.1509 15.8099 14.2309 15.7499 14.2309 15.6199V11.2399H9.69092V11.2499Z" fill="#27BA8E"/>
</svg>
