<svg width="22" height="21" viewBox="0 0 22 21" fill="none" xmlns="http://www.w3.org/2000/svg">
<path d="M19.04 4.82213L13.28 0.792135C11.71 -0.307865 9.29999 -0.247865 7.78999 0.922135L2.77999 4.83213C1.77999 5.61213 0.98999 7.21214 0.98999 8.47214V15.3721C0.98999 17.9221 3.05999 20.0021 5.60999 20.0021H16.39C18.94 20.0021 21.01 17.9321 21.01 15.3821V8.60214C21.01 7.25214 20.14 5.59213 19.04 4.82213ZM11.75 16.0021C11.75 16.4121 11.41 16.7521 11 16.7521C10.59 16.7521 10.25 16.4121 10.25 16.0021V13.0021C10.25 12.5921 10.59 12.2521 11 12.2521C11.41 12.2521 11.75 12.5921 11.75 13.0021V16.0021Z" fill="#61656D"/>
</svg>
