<svg
  width="24"
  height="24"
  viewBox="0 0 24 24"
  fill="none"
  xmlns="http://www.w3.org/2000/svg"
>
<path
    d="M21.091 6.98002C20.241 6.04002 18.821 5.57002 16.761 5.57002H16.521V5.53002C16.521 3.85002 16.521 1.77002 12.761 1.77002H11.241C7.48101 1.77002 7.48101 3.86002 7.48101 5.53002V5.58002H7.24101C5.17101 5.58002 3.76101 6.05002 2.91101 6.99002C1.92101 8.09002 1.95101 9.57002 2.05101 10.58L2.06101 10.65L2.13801 11.463C2.15301 11.613 2.23301 11.748 2.35901 11.83C2.59901 11.987 3.00001 12.246 3.24101 12.38C3.38101 12.47 3.53101 12.55 3.68101 12.63C5.39101 13.57 7.27101 14.2 9.18101 14.51C9.27101 15.45 9.68101 16.55 11.871 16.55C14.061 16.55 14.491 15.46 14.561 14.49C16.601 14.16 18.571 13.45 20.351 12.41C20.411 12.38 20.451 12.35 20.501 12.32C20.898 12.095 21.309 11.819 21.684 11.548C21.7398 11.5076 21.7866 11.4559 21.8212 11.3963C21.8558 11.3367 21.8776 11.2705 21.885 11.202L21.901 11.059L21.951 10.589C21.961 10.529 21.961 10.479 21.971 10.409C22.051 9.39902 22.031 8.02002 21.091 6.98002ZM13.091 13.83C13.091 14.89 13.091 15.05 11.861 15.05C10.631 15.05 10.631 14.86 10.631 13.84V12.58H13.091V13.83ZM8.91101 5.57002V5.53002C8.91101 3.83002 8.91101 3.20002 11.241 3.20002H12.761C15.091 3.20002 15.091 3.84002 15.091 5.53002V5.58002H8.91101V5.57002Z"
    fill="#336DFF"
  />
<path
    d="M20.873 13.735C20.9538 13.6965 21.0434 13.68 21.1326 13.6872C21.2219 13.6944 21.3076 13.725 21.3813 13.7759C21.4549 13.8268 21.5138 13.8962 21.552 13.9772C21.5903 14.0581 21.6065 14.1477 21.599 14.237L21.239 18.191C21.029 20.191 20.209 22.231 15.809 22.231H8.19001C3.79001 22.231 2.97001 20.191 2.76001 18.201L2.42001 14.453C2.41244 14.3646 2.42811 14.2759 2.46547 14.1955C2.50283 14.1151 2.56058 14.0459 2.63297 13.9947C2.70536 13.9436 2.78988 13.9122 2.87813 13.9039C2.96638 13.8955 3.05528 13.9103 3.13601 13.947C4.27601 14.463 6.37801 15.377 7.67701 15.717C7.75808 15.739 7.83329 15.7786 7.89726 15.8331C7.96122 15.8875 8.01236 15.9554 8.04701 16.032C8.65401 17.33 9.97001 18.021 11.871 18.021C13.753 18.021 15.086 17.303 15.695 16.002C15.7297 15.9255 15.7809 15.8576 15.8448 15.8031C15.9088 15.7487 15.984 15.709 16.065 15.687C17.444 15.324 19.683 14.302 20.875 13.735H20.873Z"
    fill="#336DFF"
  />
</svg>
