<svg width="24" height="24" viewBox="0 0 24 24" fill="none" xmlns="http://www.w3.org/2000/svg">
<path d="M21.091 6.97953C20.241 6.03953 18.821 5.56953 16.761 5.56953H16.521V5.52953C16.521 3.84953 16.521 1.76953 12.761 1.76953H11.241C7.48101 1.76953 7.48101 3.85953 7.48101 5.52953V5.57953H7.24101C5.17101 5.57953 3.76101 6.04953 2.91101 6.98953C1.92101 8.08953 1.95101 9.56953 2.05101 10.5795L2.06101 10.6495L2.13801 11.4625C2.15301 11.6125 2.23301 11.7475 2.35901 11.8295C2.59901 11.9865 3.00001 12.2455 3.24101 12.3795C3.38101 12.4695 3.53101 12.5495 3.68101 12.6295C5.39101 13.5695 7.27101 14.1995 9.18101 14.5095C9.27101 15.4495 9.68101 16.5495 11.871 16.5495C14.061 16.5495 14.491 15.4595 14.561 14.4895C16.601 14.1595 18.571 13.4495 20.351 12.4095C20.411 12.3795 20.451 12.3495 20.501 12.3195C20.898 12.0945 21.309 11.8185 21.684 11.5475C21.7398 11.5071 21.7866 11.4554 21.8212 11.3958C21.8558 11.3362 21.8776 11.27 21.885 11.2015L21.901 11.0585L21.951 10.5885C21.961 10.5285 21.961 10.4785 21.971 10.4085C22.051 9.39853 22.031 8.01953 21.091 6.97953ZM13.091 13.8295C13.091 14.8895 13.091 15.0495 11.861 15.0495C10.631 15.0495 10.631 14.8595 10.631 13.8395V12.5795H13.091V13.8295ZM8.91101 5.56953V5.52953C8.91101 3.82953 8.91101 3.19953 11.241 3.19953H12.761C15.091 3.19953 15.091 3.83953 15.091 5.52953V5.57953H8.91101V5.56953Z" fill="#0E1011"/>
<path d="M20.873 13.735C20.9538 13.6965 21.0434 13.68 21.1326 13.6872C21.2219 13.6944 21.3076 13.725 21.3813 13.7759C21.4549 13.8268 21.5138 13.8962 21.552 13.9772C21.5903 14.0581 21.6065 14.1477 21.599 14.237L21.239 18.191C21.029 20.191 20.209 22.231 15.809 22.231H8.19001C3.79001 22.231 2.97001 20.191 2.76001 18.201L2.42001 14.453C2.41244 14.3646 2.42811 14.2759 2.46547 14.1955C2.50283 14.1151 2.56058 14.0459 2.63297 13.9947C2.70536 13.9436 2.78988 13.9122 2.87813 13.9039C2.96638 13.8955 3.05528 13.9103 3.13601 13.947C4.27601 14.463 6.37801 15.377 7.67701 15.717C7.75808 15.739 7.83329 15.7786 7.89726 15.8331C7.96122 15.8875 8.01236 15.9554 8.04701 16.032C8.65401 17.33 9.97001 18.021 11.871 18.021C13.753 18.021 15.086 17.303 15.695 16.002C15.7297 15.9255 15.7809 15.8576 15.8448 15.8031C15.9088 15.7487 15.984 15.709 16.065 15.687C17.444 15.324 19.683 14.302 20.875 13.735H20.873Z" fill="#0E1011"/>
</svg>
