<svg width="40" height="40" viewBox="0 0 40 40" fill="none" xmlns="http://www.w3.org/2000/svg">
<path d="M26.9832 3.33325H13.0166C6.94992 3.33325 3.33325 6.94992 3.33325 13.0166V26.9666C3.33325 33.0499 6.94992 36.6666 13.0166 36.6666H26.9666C33.0332 36.6666 36.6499 33.0499 36.6499 26.9833V13.0166C36.6666 6.94992 33.0499 3.33325 26.9832 3.33325ZM25.5999 23.8333C26.0832 24.3166 26.0832 25.1166 25.5999 25.5999C25.3499 25.8499 25.0332 25.9666 24.7166 25.9666C24.3999 25.9666 24.0832 25.8499 23.8332 25.5999L19.9999 21.7666L16.1666 25.5999C15.9166 25.8499 15.5999 25.9666 15.2833 25.9666C14.9666 25.9666 14.6499 25.8499 14.3999 25.5999C14.1675 25.3647 14.0371 25.0473 14.0371 24.7166C14.0371 24.3859 14.1675 24.0685 14.3999 23.8333L18.2332 19.9999L14.3999 16.1666C14.1675 15.9314 14.0371 15.614 14.0371 15.2833C14.0371 14.9525 14.1675 14.6351 14.3999 14.3999C14.8833 13.9166 15.6832 13.9166 16.1666 14.3999L19.9999 18.2333L23.8332 14.3999C24.3166 13.9166 25.1166 13.9166 25.5999 14.3999C26.0832 14.8833 26.0832 15.6833 25.5999 16.1666L21.7666 19.9999L25.5999 23.8333Z" fill="#0E1011"/>
</svg>
