<svg width="20" height="20" viewBox="0 0 20 20" fill="none" xmlns="http://www.w3.org/2000/svg">
<path d="M8.00002 0C5.38002 0 3.25002 2.13 3.25002 4.75C3.25002 7.32 5.26002 9.4 7.88002 9.49C7.96002 9.48 8.04002 9.48 8.10002 9.49H8.17002C9.39938 9.44898 10.5646 8.93148 11.4193 8.04691C12.274 7.16234 12.7512 5.98004 12.75 4.75C12.75 2.13 10.62 0 8.00002 0ZM13.08 12.149C10.29 10.289 5.74002 10.289 2.93002 12.149C1.66002 12.999 0.960022 14.149 0.960022 15.379C0.960022 16.609 1.66002 17.749 2.92002 18.589C4.32002 19.529 6.16002 19.999 8.00002 19.999C9.84002 19.999 11.68 19.529 13.08 18.589C14.34 17.739 15.04 16.599 15.04 15.359C15.03 14.129 14.34 12.989 13.08 12.149ZM18.99 5.338C19.15 7.278 17.77 8.978 15.86 9.208H15.81C15.75 9.208 15.69 9.208 15.64 9.228C14.67 9.278 13.78 8.968 13.11 8.398C14.14 7.478 14.73 6.098 14.61 4.598C14.5414 3.818 14.2765 3.06806 13.84 2.418C14.364 2.16308 14.9421 2.03947 15.5246 2.05782C16.107 2.07617 16.6762 2.23595 17.1831 2.52335C17.69 2.81076 18.1194 3.21717 18.4342 3.70753C18.749 4.19789 18.9397 4.75747 18.99 5.338Z" fill="#0E1011"/>
</svg>
